<svg id="Cloud" xmlns="http://www.w3.org/2000/svg" viewBox="0 0 192 192"><title>Think_Cognition_Know</title><circle cx="86" cy="78" r="10"/><path d="M160,64C148.92,23.81,115.67,8,88,8A72,72,0,0,0,16,80c0,24.63,13.13,47,32,60v44h76V168h20a12,12,0,0,0,12-12V120h20S162.65,74.46,160,64ZM116,78a30,30,0,0,1-.53,5.57l9.9,10.23-6,10.4-13.81-3.46a30,30,0,0,1-9.65,5.58L92,120H80l-3.91-13.68a30,30,0,0,1-9.65-5.58L52.63,104.2l-6-10.4,9.89-10.23a30.09,30.09,0,0,1,0-11.14L46.63,62.2l6-10.4,13.81,3.46a30,30,0,0,1,9.65-5.58L80,36H92l3.91,13.68a30,30,0,0,1,9.65,5.58l13.81-3.46,6,10.4-9.9,10.23A30,30,0,0,1,116,78Z"/></svg>