<svg id="Cloud" xmlns="http://www.w3.org/2000/svg" viewBox="0 0 192 192"><title>Cards</title><path d="M112,88c0,10-8.14,20-18.18,20C80,108,76,100.36,76,100.36c0,10,6,15.64,16,15.64v8H52v-8c10,0,16-5.6,16-15.64,0,0-4,7.64-17.82,7.64C40.14,108,32,98,32,88c0-18.18,25-25.27,40-48C87,62.73,112,69.82,112,88Zm68-39.58a12.26,12.26,0,0,1-.18,2.08L157.58,174.08a12,12,0,0,1-13.9,9.74L36.16,160H24a12,12,0,0,1-12-12V20A12,12,0,0,1,24,8h96a12,12,0,0,1,12,12v9.49l38.08,7.11A12,12,0,0,1,180,48.42ZM24,148h96s0-128,0-128H24Z"/></svg>