<svg id="Cloud" xmlns="http://www.w3.org/2000/svg" viewBox="0 0 192 192"><title>Laptop_Computer_WiFi_Signal</title><path d="M172,128V40a12,12,0,0,0-12-12H32A12,12,0,0,0,20,40v88H32V40H160v88Zm-48,12h0a8,8,0,0,1-8,8H76a8,8,0,0,1-8-8H8a24,24,0,0,0,24,24H160a24,24,0,0,0,24-24ZM96,56a77.73,77.73,0,0,1,55.15,22.81l-8.48,8.48a66.08,66.08,0,0,0-93.34,0l-8.48-8.48A77.73,77.73,0,0,1,96,56Zm0,24a53.8,53.8,0,0,1,38.18,15.79l-8.48,8.48a42.06,42.06,0,0,0-59.4,0l-8.48-8.48A53.8,53.8,0,0,1,96,80Zm21.21,32.76L96,132,74.79,112.75A30,30,0,0,1,117.21,112.75Z"/></svg>